# xmcd
#
# Track frame offsets:
#	150
#	18720
#	40050
#	60130
#	76622
#	99945
#	112067
#	122140
#	139022
#	158772
#	171262
#	184540
#	200825
#	225992
#
# Disc length: 3159 seconds
#
# Revision: 0
# Processed by: cddbd v1.5.1PL0 Copyright (c) Steve Scherf et al.
# Submitted via: EasyCDDAExtractor 4.6.9.1
#
DISCID=a90c550e
DTITLE=Butch Waller - Golden Gate Promenade
DYEAR=1999
DGENRE=Bluegrass
TTITLE0=Golden Gate Promenade
TTITLE1=Danny Boy
TTITLE2=Bluegrass Stomp
TTITLE3=Golden gate Waltz
TTITLE4=Watson Blues
TTITLE5=Pike County Breakdown
TTITLE6=Rosine
TTITLE7=Soldier's Joy
TTITLE8=Faded Love
TTITLE9=The Fox And The Geese
TTITLE10=Blue Moon Of Kentucky
TTITLE11=Smoky Mountain Schottische
TTITLE12=When You And I Were Young Maggie
TTITLE13=Climbing Up The Canyon
EXTD=
EXTT0=
EXTT1=
EXTT2=
EXTT3=
EXTT4=
EXTT5=
EXTT6=
EXTT7=
EXTT8=
EXTT9=
EXTT10=
EXTT11=
EXTT12=
EXTT13=
PLAYORDER=
